<?xml version="1.0" encoding="UTF-8" standalone="no"?>
<svg
   width="324.0033"
   height="277.20001"
   viewBox="0 0 350 299.44139"
   class="css-1j8o68f"
   version="1.1"
   id="svg1"
   sodipodi:docname="logo.svg"
   xmlns:inkscape="http://www.inkscape.org/namespaces/inkscape"
   xmlns:sodipodi="http://sodipodi.sourceforge.net/DTD/sodipodi-0.dtd"
   xmlns="http://www.w3.org/2000/svg"
   xmlns:svg="http://www.w3.org/2000/svg">
  <defs
     id="defs1" />
  <sodipodi:namedview
     id="namedview1"
     pagecolor="#ffffff"
     bordercolor="#000000"
     borderopacity="0.25"
     inkscape:showpageshadow="2"
     inkscape:pageopacity="0.0"
     inkscape:pagecheckerboard="0"
     inkscape:deskcolor="#d1d1d1" />
  <g
     id="SvgjsG3639"
     featurekey="symbolFeature-0"
     transform="matrix(3.1584892,0,0,3.1584892,18.03664,-78.226926)"
     fill="#ffffff"
     style="fill:#ffffff">
    <path
       d="m 63.512,54.426804 c -0.505,-0.216 -1.096,0.014 -1.315,0.521 -0.219,0.507 0.014,1.095 0.521,1.315 11.235,4.862 18.494,15.912 18.494,28.152 0,12.67 -7.726,23.567996 -18.712,28.234996 V 98.587804 c 0,-0.446 -0.295,-0.839 -0.725,-0.962 l -3.275,-0.935 v -27.603 c 0,-0.019 -0.008,-0.035 -0.009,-0.054 -0.002,-0.042 -0.012,-0.081 -0.02,-0.122 -0.014,-0.079 -0.035,-0.153 -0.067,-0.225 -0.017,-0.039 -0.035,-0.074 -0.057,-0.11 -0.042,-0.07 -0.092,-0.13 -0.15,-0.188 -0.027,-0.027 -0.05,-0.056 -0.081,-0.08 -0.094,-0.075 -0.198,-0.138 -0.318,-0.175 -0.409,-0.129 -1.892,-0.58 -3.3,-0.845 v -15.701 c 0,-1.103 -0.897,-2 -2,-2 h -1 v -19 c 0,-0.552 -0.448,-1 -1,-1 -0.552,0 -0.998,0.448 -0.998,1 v 26 h -1.002 c -1.654,0 -2.998,1.346 -2.998,3 v 24.812 c -2.079,0.312 -4.062,0.682 -4.177,0.702 -0.475,0.086 -0.823,0.501 -0.823,0.986 V 113.3748 C 28.517,109.2038 19.891,97.801804 19.891,84.415804 c 0,-12.228 7.25,-23.274 18.469,-28.141 0.507,-0.22 0.739,-0.809 0.52,-1.315 -0.219,-0.507 -0.81,-0.739 -1.315,-0.52 -11.951,5.185 -19.673,16.951 -19.673,29.976 0,18.008996 14.651,32.659996 32.66,32.659996 18.008,0 32.66,-14.651 32.66,-32.659996 -0.001,-13.038 -7.733,-24.809 -19.7,-29.989 z m -16.012,29.161 c 0,-0.552 0.449,-1 1,-1 h 1 v 1.5 0.044 c -0.524,-0.085 -1.068,-0.102 -1.618,-0.037 -0.124,0.015 -0.253,0.031 -0.382,0.047 z m 0,-20 c 0,-0.551 0.449,-1 1,-1 h 1 v 2 h -1 c -0.352,0 -0.686,0.072 -1,0.184 z m 6.957,5.735 c 0.105,0.022 0.21,0.044 0.318,0.068 0.112,0.025 0.226,0.052 0.34,0.08 0.085,0.02 0.17,0.04 0.255,0.061 0.203,0.05 0.406,0.103 0.605,0.156 0.045,0.012 0.088,0.025 0.133,0.037 0.133,0.036 0.264,0.073 0.392,0.109 v 1.921 c -1.279,-0.347 -3.113,-0.767 -4.121,-0.643 -0.316,0.038 -0.605,0.129 -0.879,0.242 v -0.798 c 0,-0.493 0.146,-1.339 1.121,-1.458 0.089,-0.011 0.204,-0.01 0.33,-0.004 0.062,0.003 0.134,0.011 0.203,0.017 0.072,0.007 0.144,0.013 0.224,0.023 0.088,0.011 0.181,0.025 0.276,0.04 0.075,0.012 0.15,0.024 0.229,0.038 0.102,0.018 0.206,0.037 0.313,0.058 0.086,0.016 0.173,0.034 0.261,0.053 z M 42.5,102.9298 c 1.137,-0.194 3.245,-0.542 5,-0.771 v 1.983 c -1.693,0.214 -3.738,0.546 -5,0.759 z m 0,4 c 1.138,-0.194 3.247,-0.542 5,-0.771 v 1.984 c -1.693,0.214 -3.738,0.546 -5,0.759 z m 5,-7.341996 v 0.553996 c -1.693,0.214 -3.738,0.546 -5,0.759 v -1.970996 c 1.235,-0.21 3.615,-0.602 5.441,-0.827 -0.282,0.489 -0.441,0.996 -0.441,1.485 z m -5,11.341996 c 1.137,-0.194 3.245,-0.542 5,-0.771 v 1.983 c -1.693,0.214 -3.738,0.546 -5,0.759 z m 7,-3.342 c 0,-0.327 0.366,-0.923 1.067,-1.428 1.087,-0.784 2.441,-1.016 3.659,-0.61 l 6.274,1.793 v 1.92 l -5.684,-1.622 c -1.752,-0.583 -3.726,-0.268 -5.316,0.832 z m 11,-2.326 -5.684,-1.622 c -1.752,-0.584 -3.726,-0.269 -5.316,0.832 v -0.884 c 0,-0.327 0.366,-0.923 1.067,-1.428 1.087,-0.784 2.441,-1.015 3.659,-0.61 l 6.274,1.793 z M 49.886,96.225804 c -0.036,-0.012 -0.064,-0.036 -0.101,-0.044 -0.618,-0.133 -1.258,-0.162 -1.903,-0.087 -1.756,0.209 -4.024,0.577 -5.382,0.806 v -1.971 c 1.275,-0.217 3.772,-0.629 5.618,-0.849 1.63,-0.193 2.881,0.672 3.258,1.499 -0.516,0.146 -1.016,0.365 -1.49,0.646 z m 2.614,-29.122 c -0.04,0.003 -0.083,0.004 -0.121,0.008 -0.316,0.038 -0.605,0.129 -0.879,0.242 v -0.766 h 1 z m 4,12.652 c -1.279,-0.346 -3.113,-0.765 -4.12,-0.645 -0.316,0.038 -0.605,0.128 -0.88,0.242 v -0.799 c 0,-0.493 0.146,-1.338 1.121,-1.457 0.668,-0.081 2.473,0.334 3.879,0.737 z m -5,2.798 c 0,-0.493 0.146,-1.338 1.121,-1.457 0.668,-0.081 2.473,0.334 3.879,0.737 v 1.922 c -1.278,-0.346 -3.111,-0.766 -4.12,-0.644 -0.315,0.038 -0.606,0.12 -0.88,0.23 z m 5,-6.797 c -1.279,-0.345 -3.113,-0.763 -4.12,-0.645 -0.316,0.038 -0.605,0.128 -0.88,0.242 v -0.799 c 0,-0.493 0.146,-1.339 1.121,-1.458 0.664,-0.082 2.472,0.333 3.879,0.736 z m -3.879,9.34 c 0.668,-0.081 2.473,0.334 3.879,0.737 v 1.92 c -0.94,-0.256 -2.179,-0.551 -3.173,-0.638 -0.204,-0.636 -0.587,-1.238 -1.16,-1.746 -0.032,-0.029 -0.069,-0.053 -0.102,-0.081 0.154,-0.1 0.337,-0.166 0.556,-0.192 z m 0.879,4.049 c 0.849,0.12 2.019,0.406 3,0.687 v 1.92 c -0.887,-0.242 -2.038,-0.517 -3,-0.62 z m -2,-24.558 v -1 h 1 v 1 z m 0,-3 v -1 h 1 v 1 z m 1,-6 h -1 v -1 h 1 z m 0,2 v 1 h -1 v -1 z m -5,10 c 0,-0.551 0.449,-1 1,-1 h 1 v 2 h -1 c -0.352,0 -0.686,0.072 -1,0.184 z m 0,4 c 0,-0.551 0.449,-1 1,-1 h 1 v 1.5 0.5 h -1 c -0.352,0 -0.686,0.072 -1,0.184 z m 0,4 c 0,-0.552 0.449,-1 1,-1 h 1 v 2 h -1 c -0.352,0 -0.686,0.072 -1,0.184 z m 0,4 c 0,-0.552 0.449,-1 1,-1 h 1 v 2 h -1 c -0.352,0 -0.686,0.072 -1,0.184 z m 4,13.306 c -0.974,-0.618 -2.23,-0.968 -3.618,-0.799 -1.756,0.209 -4.024,0.577 -5.382,0.806 v -1.971 c 1.275,-0.217 3.772,-0.629 5.618,-0.849 1.009,-0.127 2.032,0.171 2.721,0.783 0.42,0.373 0.661,0.819 0.661,1.224 z m -4,21.264996 v 0.764 c -0.886,-0.088 -1.759,-0.22 -2.622,-0.382 0.86,-0.135 1.781,-0.272 2.622,-0.382 z m 2,-2.571 c 0,-0.327 0.366,-0.923 1.067,-1.428 1.087,-0.784 2.441,-1.014 3.659,-0.61 l 6.274,1.793 v 1.919 l -5.684,-1.622 c -1.752,-0.583 -3.726,-0.268 -5.316,0.832 z m 11,-10.326 -5.684,-1.621996 c -1.752,-0.584 -3.726,-0.268 -5.316,0.831996 v -0.883996 c 0,-0.327 0.366,-0.923 1.067,-1.428 1.087,-0.784 2.441,-1.015 3.659,-0.61 l 6.274,1.792 z m -5.684,-5.621996 c -0.428,-0.143 -0.87,-0.229 -1.316,-0.266 v -2.227 c 0.849,0.12 2.019,0.406 3,0.687 v 2.287 z m -2.316,-44.052 v 1 h -1 v -1 z m -4,7 h 1 v 2 h -1 c -0.352,0 -0.686,0.072 -1,0.184 v -1.184 c 0,-0.551 0.449,-1 1,-1 z m -0.382,27.493 c 1.009,-0.126 2.032,0.171 2.721,0.783 0.42,0.373 0.661,0.819 0.661,1.224 v 0.791 c -1.038,-0.651 -2.312,-0.939 -3.618,-0.784 -1.756,0.209 -4.024,0.577 -5.382,0.806 v -1.971 c 1.277,-0.218 3.776,-0.63 5.618,-0.849 z m 1.589,28.972996 c 0.175,-0.284 0.455,-0.601 0.86,-0.894 1.087,-0.784 2.441,-1.015 3.659,-0.61 l 2.86,0.817 c -2.107,0.459 -4.292,0.708 -6.535,0.708 -0.283,0 -0.563,-0.013 -0.844,-0.021 z"
       id="path1"
       style="fill:#ffffff" />
  </g>
</svg>
